<?xml version="1.0"?>
<svg id="Layer_1" data-name="Layer 1" xmlns="http://www.w3.org/2000/svg" viewBox="0 0 1124 940.07">
  <defs>
    <style>.cls-1{fill:#ffffff;}</style>
  </defs>
  <rect fill="none" width="1124" height="940.07"></rect>
  <g>
    <g>
      <path class="cls-1" d="M239.33,727.77h-6.49s0-28.98,0-28.98h-2.28v-4.99h8.77s0,33.97,0,33.97Z"></path>
      <path class="cls-1" d="M250.22,721.89h-6.51s0-23.11,0-23.11h-2.05v-4.99h8.56s0,28.09,0,28.09Z"></path>
      <path class="cls-1" d="M268.11,721.89h-6.51s0-21.82,0-21.82c0-.86-.43-1.29-1.28-1.29h-7.58v-4.99h9.86c3.68,0,5.51,1.93,5.51,5.81v22.29Z"></path>
      <path class="cls-1" d="M296,712.51c0,6.26-3.21,9.39-9.63,9.39h-15.19s0-28.09,0-28.09h6.28s0,16.06,0,16.06h1.91c.79,0,1.19-.5,1.19-1.5v-14.56h6.05v14.91c0,3.29-1.73,4.94-5.19,4.94h-3.95s0,3.39,0,3.39h9.19c2.03,0,3.05-1.1,3.05-3.3v-19.94s6.3,0,6.3,0v18.7Z"></path>
      <path class="cls-1" d="M316.26,721.89h-6.54s0-23.11,0-23.11h-10.86v-4.99h17.4s0,28.09,0,28.09ZM305.58,721.89h-6.54s0-18.4,0-18.4h6.54s0,18.4,0,18.4Z"></path>
      <path class="cls-1" d="M345.41,698.79h-2.37s0,23.11,0,23.11h-6.54s0-23.11,0-23.11h-8.28v-4.99h17.19v4.99Z"></path>
      <path class="cls-1" d="M355.88,721.89h-6.51s0-23.11,0-23.11h-2.05v-4.99h8.56s0,28.09,0,28.09Z"></path>
      <path class="cls-1" d="M376.09,721.89h-6.54s0-23.11,0-23.11h-10.86v-4.99h17.4s0,28.09,0,28.09ZM365.42,721.89h-6.54s0-18.4,0-18.4h6.54s0,18.4,0,18.4Z"></path>
      <path class="cls-1" d="M403.92,707.52c0,2.62-.83,5.54-2.49,8.76l-2.84,5.62h-6.77v-.82s3.61-6.91,3.61-6.91c1.3-2.45,1.95-4.51,1.95-6.18v-9.2s-9.38,0-9.38,0v-10.21h6.51v5.22s9.4,0,9.4,0v13.72Z"></path>
      <path class="cls-1" d="M425.44,716.09c0,1.98-.44,3.44-1.33,4.38-1.04,1.02-2.71,1.52-5,1.52h-.14c-1.35,0-2.41-.09-3.16-.28v-4.71h1.49c.64,0,1.08-.11,1.34-.31.26-.22.39-.66.39-1.32v-16.67s-4.16,0-4.16,0l-1.42,23.2h-6.63s1.91-23.15,1.91-23.15l-2.28.05v-4.99s19.01,0,19.01,0v22.29Z"></path>
      <path class="cls-1" d="M446.28,714.8c0,1.53-.23,2.72-.7,3.58-1.3,2.34-3.59,3.51-6.86,3.51h-11.05v-4.89h3.09s-2.23-23.2-2.23-23.2h6.42s1.77,23.2,1.77,23.2h1.81c.82,0,1.23-.41,1.23-1.24v-21.96s6.51,0,6.51,0v21Z"></path>
    </g>
    <rect class="cls-1" x="230.44" y="485" width="678.55" height="26.8" transform="translate(1139.43 996.8) rotate(180)"></rect>
    <rect class="cls-1" x="457.05" y="693.3" width="451.94" height="26.8" transform="translate(1366.04 1413.4) rotate(180)"></rect>
    <g>
      <path class="cls-1" d="M371.98,447.22h-53.64l5.82-174.99h-89.14l1.26-52.95h142.78l-7.08,227.94ZM284.36,447.22h-53.64l4.64-150.98h53.64l-4.64,150.98Z"></path>
      <path class="cls-1" d="M902.27,447.22h-53.64l5.52-174.99h-41.42l-5.52,174.99-55.56.68,8.8-227.94,148.53-.68-6.72,227.94Z"></path>
    </g>
    <path class="cls-1" d="M569.99,447.22h51.05l4.16-102.24c1.7,2.36,3.41,4.72,5.11,7.08,13.7,18.14,25.96,37,36.77,56.59,6.49,11.61,10.52,25.51,12.68,38.57h54.73l7.47-227.94h-50.42l-5.8,120.17c-5.01-7.26-10.14-14.31-15.41-21.14-5.77-7.26-10.45-13.79-14.06-19.59-15.86-23.22-24.15-49.7-24.88-79.45h-51.91"></path>
    <g>
      <path class="cls-1" d="M263.58,610.1h-25.14v-43.45h-8.89v-19.24h34.02v62.69Z"></path>
      <path class="cls-1" d="M320.58,655.81h-20.56l-2.06-28.64c0-.42-.06-.63-.18-.63-.3,0-.48.21-.54.63l-2.42,9.03c-.96,3.61-2.84,7.02-5.66,10.21-5.87,6.26-10.59,10.12-14.18,11.56h-1.8v-21.95l2.42-2.08c6.94-5.48,11.94-10,14.99-13.55,3.23-3.67,4.85-7.98,4.85-12.92v-36.23c0-3.07-1.41-4.61-4.22-4.61h-14.72v-19.24h23.88c5.68,0,10.35,1.6,14,4.79,4.13,3.61,6.19,8.97,6.19,16.08v87.54Z"></path>
      <path class="cls-1" d="M362.42,655.81h-25.14v-89.16h-7.9v-19.24h33.04v108.41Z"></path>
      <path class="cls-1" d="M419.34,655.81h-20.56l-2.06-28.64c0-.42-.06-.63-.18-.63-.3,0-.48.21-.54.63l-2.42,9.03c-.96,3.61-2.84,7.02-5.66,10.21-5.87,6.26-10.59,10.12-14.18,11.56h-1.8v-21.95l2.42-2.08c6.94-5.48,11.94-10,14.99-13.55,3.23-3.67,4.85-7.98,4.85-12.92v-36.23c0-3.07-1.41-4.61-4.22-4.61h-14.72v-19.24h23.88c5.68,0,10.35,1.6,14,4.79,4.13,3.61,6.19,8.97,6.19,16.08v87.54Z"></path>
      <path class="cls-1" d="M502.91,631.42c0,8.43-3.05,14.85-9.16,19.24-5.69,3.92-13.41,5.87-23.16,5.87h-9.43c-20.05,0-30.07-8.49-30.07-25.48v-83.65h24.78v86.36c0,3.07,1.47,4.61,4.4,4.61h12.48c3.47,0,5.21-1.6,5.21-4.79v-67.84c-1.08,0-1.83.12-2.24.36l-9.34,6.23h-2.24v-18.88l6.46-3.88c2.39-1.45,5.45-2.17,9.16-2.17h23.16v84.01Z"></path>
      <path class="cls-1" d="M544.93,655.81h-25.14v-89.16h-7.9v-19.24h33.04v108.41Z"></path>
      <path class="cls-1" d="M589.82,610.1h-25.14v-43.45h-8.89v-19.24h34.02v62.69Z"></path>
      <path class="cls-1" d="M668.75,678.48h-25.05v-111.84h-8.8v-19.24h33.84v131.08Z"></path>
      <path class="cls-1" d="M710.77,655.81h-25.14v-89.16h-7.9v-19.24h33.04v108.41Z"></path>
      <path class="cls-1" d="M780.88,626.99c0,19.21-8.77,28.82-26.3,28.82h-32.95v-18.88h27.2c3.23,0,5.33-1.29,6.28-3.88.36-1.32.54-4.16.54-8.49v-45.17c0-5.18-.45-8.58-1.35-10.21-.78-1.69-2.48-2.53-5.12-2.53h-27.56v-19.24h32.59c8.74,0,15.23,1.9,19.48,5.69,4.79,4.64,7.18,12.35,7.18,23.13v50.77Z"></path>
      <path class="cls-1" d="M824.15,610.1h-25.14v-43.45h-8.89v-19.24h34.02v62.69Z"></path>
      <path class="cls-1" d="M908.99,655.81h-25.05v-89.16h-16.52v68.11c0,5-.69,8.82-2.06,11.47-3.41,6.75-10.83,10.12-22.26,10.12h-.36c-3.11,0-6.46-.48-10.05-1.45v-17.98c.9.06,1.62.11,2.15.14.54.03.9.05,1.08.05,4.19,0,6.28-2.17,6.28-6.5v-83.2h66.79v108.41Z"></path>
    </g>
    <path class="cls-1" d="M388.55,447.22h51.05l4.16-102.24c1.7,2.36,3.41,4.72,5.11,7.08,13.7,18.14,25.96,37,36.77,56.59,6.49,11.61,10.52,25.51,12.68,38.57h54.73l7.47-227.94h-50.42l-5.8,120.17c-5.01-7.26-10.14-14.31-15.41-21.14-5.77-7.26-10.45-13.79-14.06-19.59-15.86-23.22-24.15-49.7-24.88-79.45h-51.91"></path>
  </g>
</svg>
